# xmcd
#
# Track frame offsets:
#	150
#	20341
#	36131
#	45846
#	63377
#	75320
#	94355
#	106527
#	132209
#	150934
#	177879
#
# Disc length: 2733 seconds
#
# Revision: 2
# Processed by: cddbd v1.5.2PL0 Copyright (c) Steve Scherf et al.
# Submitted via: audiograbber 1.83.01
#
DISCID=700aab0b
DTITLE=Hillstomp - One Word
DYEAR=2004
DGENRE=Blues
TTITLE0=graverobber's blues
TTITLE1=john henry (traditional)
TTITLE2=Nope
TTITLE3=roustabout
TTITLE4=shake 'em on down (bukka white)
TTITLE5=goin down south (r.l. burnside)
TTITLE6=lucy's lament
TTITLE7=flood blues
TTITLE8=cottonwood
TTITLE9=landlord blues
TTITLE10=long haired doney (traditional)
EXTD=YEAR: 2004
EXTT0=
EXTT1=
EXTT2=
EXTT3=
EXTT4=
EXTT5=
EXTT6=
EXTT7=
EXTT8=
EXTT9=
EXTT10=
PLAYORDER=
